<?xml version="1.0" encoding="utf-8"?>
<!-- Generator: Adobe Illustrator 16.0.0, SVG Export Plug-In . SVG Version: 6.00 Build 0)  -->
<!DOCTYPE svg PUBLIC "-//W3C//DTD SVG 1.1//EN" "http://www.w3.org/Graphics/SVG/1.1/DTD/svg11.dtd">
<svg version="1.1" id="Layer_1" xmlns="http://www.w3.org/2000/svg" xmlns:xlink="http://www.w3.org/1999/xlink" x="0px" y="0px"
	 width="512.101px" height="149.42px" viewBox="0 0 512.101 149.42" enable-background="new 0 0 512.101 149.42"
	 xml:space="preserve">
<g>
	<path fill="#E7511E" d="M1.835,2.374v144.674h137.391V2.374H1.835z M37.31,129.153H19.572v-19.961H37.31V129.153z M37.31,84.616
		H19.572V64.653H37.31V84.616z M37.31,40.075H19.572V20.114H37.31V40.075z M79.32,129.306H61.583v-19.962H79.32V129.306z
		 M79.32,84.771H61.583V64.807H79.32V84.771z M79.32,40.227H61.583V20.264H79.32V40.227z M121.485,129.306h-17.741v-19.962h17.741
		V129.306z M121.485,84.771h-17.741V64.807h17.741V84.771z M121.485,40.227h-17.741V20.264h17.741V40.227z"/>
	<g>
		<path fill="#191919" d="M177.479,22.917v49.574h-12.941V22.917H177.479z"/>
		<path fill="#191919" d="M198.481,22.917l22.488,29.843V22.917h12.022v49.574h-11.315l-22.488-29.702v29.702h-12.093V22.917
			H198.481z"/>
		<path fill="#191919" d="M280.871,22.917v10.678h-14.853v38.896h-12.941V33.594h-14.709V22.917H280.871z"/>
		<path fill="#191919" d="M325.212,22.917v10.325h-26.166v9.265h23.619V52.76l-23.619,0.072v9.334h26.873v10.325h-39.814V22.917
			H325.212z"/>
		<path fill="#191919" d="M363.613,72.491L356.4,58.772h-0.283h-9.336v13.719h-12.941V22.917h22.277
			c13.152,0,20.648,6.366,20.648,17.396c0,7.496-3.111,13.014-8.84,15.982l10.326,16.195L363.613,72.491L363.613,72.491z
			 M346.781,48.447h9.406c5.232,0,8.273-2.688,8.273-7.709c0-4.88-3.041-7.496-8.273-7.496h-9.406V48.447z"/>
		<path fill="#191919" d="M397.982,22.917v49.574h-12.941V22.917H397.982z"/>
		<path fill="#E7511E" d="M458.023,47.668c0,14.497-11.455,25.388-26.803,25.388c-15.346,0-26.803-10.891-26.803-25.388
			c0-14.427,11.457-25.104,26.803-25.104C446.568,22.564,458.023,33.312,458.023,47.668z M417.714,47.739
			c0,8.062,6.293,14.285,13.648,14.285c7.424,0,13.363-6.224,13.363-14.285c0-8.062-5.939-14.146-13.363-14.146
			C423.937,33.594,417.714,39.677,417.714,47.739z"/>
		<path fill="#191919" d="M494.23,72.491l-7.213-13.719h-0.283H477.4v13.719h-12.941V22.917h22.275
			c13.154,0,20.65,6.366,20.65,17.396c0,7.496-3.113,13.014-8.84,15.982l10.324,16.195L494.23,72.491L494.23,72.491z M477.4,48.447
			h9.404c5.232,0,8.275-2.688,8.275-7.709c0-4.88-3.043-7.496-8.275-7.496H477.4V48.447z"/>
	</g>
	<g>
		<path fill="#191919" d="M179.732,93.334c-2.602,0-4.315,0.944-4.315,2.838c0,6.856,21.817,2.955,21.817,17.854
			c0,8.455-7.45,12.771-16.674,12.771c-6.918,0-14.132-2.541-19.098-6.621l4.197-8.455c4.258,3.666,10.702,6.269,15.019,6.269
			c3.193,0,5.203-1.185,5.203-3.371c0-7.035-21.817-2.779-21.817-17.443c0-7.743,6.563-12.651,16.556-12.651
			c6.09,0,12.239,1.893,16.556,4.67l-4.08,8.574C188.721,95.286,183.162,93.334,179.732,93.334z"/>
		<path fill="#191919" d="M244.894,105.692c0,12.121-9.579,21.227-22.41,21.227s-22.409-9.105-22.409-21.227
			c0-12.063,9.578-20.99,22.409-20.99S244.894,93.688,244.894,105.692z M211.19,105.75c0,6.74,5.262,11.942,11.411,11.942
			c6.209,0,11.176-5.202,11.176-11.942s-4.967-11.826-11.176-11.826C216.394,93.924,211.19,99.01,211.19,105.75z"/>
		<path fill="#191919" d="M261.095,84.997v32.225h17.563v9.226h-28.383v-41.45H261.095z"/>
		<path fill="#191919" d="M302.13,117.694c4.789,0,8.102-3.252,8.102-8.633V84.997h10.82v24.064c0,10.938-7.332,17.856-18.98,17.856
			c-11.707,0-19.216-6.918-19.216-17.856V84.997h10.819v24.064C293.675,114.383,297.224,117.694,302.13,117.694z"/>
		<path fill="#191919" d="M360.314,84.997v8.928h-12.416v32.521h-10.82V93.924h-12.299v-8.928L360.314,84.997L360.314,84.997z"/>
		<path fill="#191919" d="M375.511,84.997v41.449h-10.82V84.997H375.511z"/>
		<path fill="#191919" d="M425.71,105.692c0,12.121-9.578,21.227-22.41,21.227c-12.83,0-22.408-9.105-22.408-21.227
			c0-12.063,9.578-20.99,22.408-20.99C416.132,84.702,425.71,93.688,425.71,105.692z M392.007,105.75
			c0,6.74,5.262,11.942,11.412,11.942c6.207,0,11.174-5.202,11.174-11.942s-4.967-11.826-11.174-11.826
			C397.21,93.924,392.007,99.01,392.007,105.75z"/>
		<path fill="#191919" d="M440.611,84.997l18.803,24.951V84.997h10.053v41.449h-9.461l-18.803-24.834v24.834h-10.111V84.997H440.611
			z"/>
		<path fill="#191919" d="M492.763,93.334c-2.602,0-4.314,0.944-4.314,2.838c0,6.856,21.816,2.955,21.816,17.854
			c0,8.455-7.449,12.771-16.674,12.771c-6.918,0-14.131-2.541-19.098-6.621l4.197-8.455c4.258,3.666,10.701,6.269,15.018,6.269
			c3.193,0,5.205-1.185,5.205-3.371c0-7.035-21.818-2.779-21.818-17.443c0-7.743,6.563-12.651,16.557-12.651
			c6.09,0,12.238,1.893,16.555,4.67l-4.08,8.574C501.751,95.286,496.193,93.334,492.763,93.334z"/>
	</g>
</g>
</svg>
